<mxfile host="app.diagrams.net" modified="2024-05-29T07:07:25.502Z" agent="Mozilla/5.0 (Windows NT 10.0; Win64; x64; rv:126.0) Gecko/20100101 Firefox/126.0" etag="Rn8xdG9h32Sq24K9FqLI" version="24.4.9" type="github">
  <diagram name="Page-1" id="yn_2q6GgDK7vTStX77QH">
    <mxGraphModel dx="1050" dy="511" grid="1" gridSize="10" guides="1" tooltips="1" connect="1" arrows="1" fold="1" page="1" pageScale="1" pageWidth="827" pageHeight="1169" math="0" shadow="0">
      <root>
        <mxCell id="0" />
        <mxCell id="1" parent="0" />
        <mxCell id="kkaPd3Ft8qbQOoLEHKJ5-1" value="Validation des donnÃ©es" style="rounded=0;whiteSpace=wrap;html=1;fillColor=#fff2cc;strokeColor=#d6b656;" vertex="1" parent="1">
          <mxGeometry x="280" y="200" width="240" height="100" as="geometry" />
        </mxCell>
        <mxCell id="kkaPd3Ft8qbQOoLEHKJ5-3" style="edgeStyle=orthogonalEdgeStyle;rounded=0;orthogonalLoop=1;jettySize=auto;html=1;exitX=1;exitY=0.5;exitDx=0;exitDy=0;entryX=0;entryY=0.5;entryDx=0;entryDy=0;" edge="1" parent="1" source="kkaPd3Ft8qbQOoLEHKJ5-2" target="kkaPd3Ft8qbQOoLEHKJ5-1">
          <mxGeometry relative="1" as="geometry" />
        </mxCell>
        <mxCell id="kkaPd3Ft8qbQOoLEHKJ5-2" value="AceScape" style="rounded=0;whiteSpace=wrap;html=1;fillColor=#dae8fc;strokeColor=#6c8ebf;" vertex="1" parent="1">
          <mxGeometry x="60" y="220" width="120" height="60" as="geometry" />
        </mxCell>
      </root>
    </mxGraphModel>
  </diagram>
</mxfile>
